/vscmnt/brussel_pixiu_data/_data_brussel/112/vsc11236/PredSimResults/SUBJ06mtu3D/weighted-expIG/worker_05.mot
version=1
nRows=4
nColumns=50
inDegrees=yes
endheader
                time	         pelvis_tilt	         pelvis_list	     pelvis_rotation	           pelvis_tx	           pelvis_ty	           pelvis_tz	       hip_flexion_r	     hip_adduction_r	      hip_rotation_r	        knee_angle_r	       ankle_angle_r	         mtp_angle_r	       hip_flexion_l	     hip_adduction_l	      hip_rotation_l	        knee_angle_l	       ankle_angle_l	         mtp_angle_l	    lumbar_extension	      lumbar_bending	     lumbar_rotation	 ercspn_r/activation	 intobl_r/activation	 extobl_r/activation	    abd_r/activation	    add_r/activation	hamstrings_r/activation	bifemsh_r/activation	glut_max_r/activation	iliopsoas_r/activation	rect_fem_r/activation	  vasti_r/activation	gastroc_r/activation	 soleus_r/activation	tib_ant_r/activation	 ercspn_l/activation	 intobl_l/activation	 extobl_l/activation	    abd_l/activation	    add_l/activation	hamstrings_l/activation	bifemsh_l/activation	glut_max_l/activation	iliopsoas_l/activation	rect_fem_l/activation	  vasti_l/activation	gastroc_l/activation	 soleus_l/activation	tib_ant_l/activation	
          0.00000000	         -7.49305777	         -5.07494476	         11.03606070	          0.00000000	          0.93220708	         -0.02111838	         28.56578415	          0.50553671	         -6.17372506	          1.02080264	          5.91160426	          0.21074049	         -8.11323063	         -4.92588426	         10.13562011	         -8.13166134	         10.40049486	         29.55905837	         -1.44858149	          2.75098591	         -2.46163582	          0.09260919	          0.17766086	          0.02295840	          0.01088120	          0.10547191	          0.04848138	          0.17493463	          0.00999999	          0.07936689	          0.00999999	          0.00999999	          0.01008753	          0.00999999	          0.27875547	          0.05716005	          0.00999999	          0.00999999	          0.06992866	          0.00999999	          0.01565688	          0.13279612	          0.07942410	          0.40213528	          0.00999999	          0.00999999	          0.34784440	          0.34979774	          0.01348798	
          0.01385617	         -7.62393078	         -4.98355249	         11.05677219	          0.01689837	          0.92993384	         -0.02030539	         28.63921112	          0.67143298	         -5.79035026	         -0.45794742	          5.42294548	          0.21031264	         -8.52059005	         -4.92171085	          9.61117113	         -9.07878900	          9.83630544	         31.33867594	         -1.12381790	          3.04431098	         -2.63219389	          0.07523476	          0.14511532	          0.01865117	          0.00999999	          0.15082184	          0.04750158	          0.14211512	          0.04134115	          0.06447686	          0.00999999	          0.00999999	          0.02295840	          0.01761869	          0.28995885	          0.08687399	          0.00999999	          0.00999999	          0.05680933	          0.03921799	          0.01271949	          0.10788222	          0.06452333	          0.40242533	          0.00999999	          0.00999999	          0.32471851	          0.33306556	          0.01095750	
          0.02771233	         -7.73194753	         -4.87800255	         11.01112994	          0.03429811	          0.92791241	         -0.01940994	         28.50603660	          0.82084846	         -5.39289134	         -1.83703406	          4.90075078	          0.19634251	         -8.84221641	         -4.88506611	          9.05153430	        -10.28113369	          9.11390580	         33.17785180	         -0.77553838	          3.33850944	         -2.78389818	          0.06711360	          0.11789022	          0.01515202	          0.04320389	          0.12252613	          0.05330818	          0.12021414	          0.07178007	          0.05238034	          0.00999999	          0.00999999	          0.01865117	          0.01431324	          0.34203434	          0.09091266	          0.00999999	          0.00999999	          0.04615132	          0.03880352	          0.01089288	          0.08764242	          0.05241810	          0.37983827	          0.00999999	          0.00999999	          0.29732891	          0.30828815	          0.00999999	
          0.04156850	         -7.81970351	         -4.75655900	         10.90034562	          0.05193728	          0.92638478	         -0.01840174	         28.17262119	          0.98447589	         -5.06200776	         -2.88740026	          4.23687431	          0.17187729	         -8.98797797	         -4.80578898	          8.47007547	        -11.84716864	          8.16853339	         35.07608116	         -0.43035402	          3.62744260	         -2.90825511	          0.07663837	          0.09577281	          0.01230935	          0.08810782	          0.11913656	          0.05692435	          0.09766075	          0.10231608	          0.04255326	          0.00999999	          0.00999999	          0.01515202	          0.01162793	          0.37765191	          0.11383759	          0.00999999	          0.00999999	          0.03749287	          0.04066531	          0.02091767	          0.07119981	          0.04258393	          0.36915596	          0.01000000	          0.01515202	          0.25316725	          0.27985671	          0.00999999	
